<svg width="60" height="60" viewBox="0 0 60 60" fill="none" xmlns="http://www.w3.org/2000/svg">
<rect width="60" height="60" fill="white"/>
<path d="M17.0769 17L4 30.3549C11.2452 37.7362 22.9289 37.7454 30.1741 30.3641L17.0769 17Z" fill="url(#paint0_linear_399_46210)"/>
<path d="M43.4285 43.5386L30.1741 30.3641C37.4965 23.0418 49.4315 23.0326 56.7539 30.3549L43.4285 43.5386Z" fill="url(#paint1_linear_399_46210)"/>
<path d="M17.0769 17L4 30.3549C11.2452 37.7362 22.9289 37.7454 30.1741 30.3641L17.0769 17Z" fill="url(#paint2_linear_399_46210)"/>
<path d="M43.4285 43.5386L30.1741 30.3641C37.4965 23.0418 49.4315 23.0326 56.7539 30.3549L43.4285 43.5386Z" fill="url(#paint3_linear_399_46210)"/>
<defs>
<linearGradient id="paint0_linear_399_46210" x1="7.90387" y1="42.6454" x2="24.9039" y2="22.6454" gradientUnits="userSpaceOnUse">
<stop offset="0.175935" stop-color="#4F46E5"/>
<stop offset="0.872048" stop-color="#4F46E5" stop-opacity="0"/>
</linearGradient>
<linearGradient id="paint1_linear_399_46210" x1="54.4039" y1="20.6454" x2="38.9039" y2="39.1454" gradientUnits="userSpaceOnUse">
<stop offset="0.155424" stop-color="#4F46E5"/>
<stop offset="1" stop-color="#4F46E5" stop-opacity="0"/>
</linearGradient>
<linearGradient id="paint2_linear_399_46210" x1="26.4039" y1="32.1454" x2="25.4039" y2="28.1454" gradientUnits="userSpaceOnUse">
<stop offset="0.175935" stop-color="#4F46E5"/>
<stop offset="0.872048" stop-color="#4F46E5" stop-opacity="0"/>
</linearGradient>
<linearGradient id="paint3_linear_399_46210" x1="35.4039" y1="28.1454" x2="36.4039" y2="32.1454" gradientUnits="userSpaceOnUse">
<stop offset="0.155424" stop-color="#4F46E5"/>
<stop offset="1" stop-color="#4F46E5" stop-opacity="0"/>
</linearGradient>
</defs>
</svg>
