<svg width="180" height="32" viewBox="0 0 180 32" fill="none" xmlns="http://www.w3.org/2000/svg">
<g clip-path="url(#clip0_305_19629)">
<path d="M16.6731 2.35464L3.59613 15.7096C10.8414 23.0909 22.525 23.1 29.7703 15.7188L16.6731 2.35464Z" fill="url(#paint0_angular_305_19629)"/>
<path d="M43.0246 28.8933L29.7703 15.7188C37.0926 8.39642 49.0277 8.38724 56.35 15.7096L43.0246 28.8933Z" fill="url(#paint1_angular_305_19629)"/>
<path d="M29.1074 15.0576L29.7703 15.7205L30.4332 15.0576C30.0671 15.4237 29.4735 15.4237 29.1074 15.0576Z" fill="url(#paint2_angular_305_19629)"/>
<path fill-rule="evenodd" clip-rule="evenodd" d="M29.1073 16.3835L29.7702 15.7205L30.4331 16.3835C30.067 16.0173 29.4734 16.0173 29.1073 16.3835Z" fill="#D9D9D9"/>
</g>
<path d="M71.146 21.775L68 10.313H70.86L72.752 17.705L75.04 10.313H77.57L79.836 17.727L81.728 10.313H84.544L81.376 21.775H78.494L76.272 14.449L74.05 21.775H71.146Z" fill="#1B1464"/>
<path d="M85.9621 21.775V10.313H88.9761V21.775H85.9621ZM87.4581 8.949C86.9888 8.949 86.5855 8.78033 86.2481 8.443C85.9108 8.10567 85.7421 7.70233 85.7421 7.233C85.7421 6.749 85.9108 6.34567 86.2481 6.023C86.5855 5.68566 86.9888 5.517 87.4581 5.517C87.9421 5.517 88.3455 5.68566 88.6681 6.023C89.0055 6.34567 89.1741 6.749 89.1741 7.233C89.1741 7.70233 89.0055 8.10567 88.6681 8.443C88.3455 8.78033 87.9421 8.949 87.4581 8.949Z" fill="#1B1464"/>
<path d="M95.6232 21.995C94.5672 21.995 93.5919 21.863 92.6972 21.599C91.8026 21.3203 91.0252 20.9243 90.3652 20.411L91.8612 18.409C92.5212 18.849 93.1519 19.179 93.7532 19.399C94.3692 19.619 94.9779 19.729 95.5792 19.729C96.2539 19.729 96.7892 19.619 97.1852 19.399C97.5959 19.1643 97.8012 18.8637 97.8012 18.497C97.8012 18.2037 97.6839 17.969 97.4492 17.793C97.2292 17.617 96.8699 17.4923 96.3712 17.419L94.1712 17.089C93.0272 16.913 92.1619 16.5463 91.5752 15.989C90.9886 15.417 90.6952 14.669 90.6952 13.745C90.6952 12.997 90.8859 12.359 91.2672 11.831C91.6632 11.2883 92.2132 10.8703 92.9172 10.577C93.6359 10.269 94.4866 10.115 95.4692 10.115C96.3052 10.115 97.1192 10.2323 97.9112 10.467C98.7179 10.7017 99.4732 11.061 100.177 11.545L98.7252 13.503C98.0946 13.107 97.4932 12.821 96.9212 12.645C96.3492 12.469 95.7699 12.381 95.1832 12.381C94.6406 12.381 94.2006 12.4837 93.8632 12.689C93.5406 12.8943 93.3792 13.1657 93.3792 13.503C93.3792 13.811 93.4966 14.053 93.7312 14.229C93.9659 14.405 94.3692 14.5297 94.9412 14.603L97.1192 14.933C98.2632 15.0943 99.1359 15.461 99.7372 16.033C100.339 16.5903 100.639 17.3163 100.639 18.211C100.639 18.9443 100.419 19.597 99.9792 20.169C99.5392 20.7263 98.9452 21.1737 98.1972 21.511C97.4492 21.8337 96.5912 21.995 95.6232 21.995Z" fill="#1B1464"/>
<path d="M111.868 21.929C110.782 21.929 109.8 21.665 108.92 21.137C108.04 20.609 107.336 19.905 106.808 19.025C106.294 18.1303 106.038 17.133 106.038 16.033C106.038 14.933 106.294 13.943 106.808 13.063C107.336 12.1683 108.047 11.4643 108.942 10.951C109.836 10.423 110.841 10.159 111.956 10.159C112.528 10.159 113.078 10.2397 113.606 10.401C114.134 10.5477 114.625 10.7677 115.08 11.061V6.375L118.094 5.869V21.775H115.124V20.829C114.185 21.5623 113.1 21.929 111.868 21.929ZM112.352 19.355C112.909 19.355 113.415 19.267 113.87 19.091C114.339 18.9003 114.742 18.6217 115.08 18.255V13.789C114.742 13.4517 114.339 13.1877 113.87 12.997C113.4 12.8063 112.894 12.711 112.352 12.711C111.721 12.711 111.149 12.8577 110.636 13.151C110.137 13.4297 109.741 13.8257 109.448 14.339C109.154 14.8377 109.008 15.4023 109.008 16.033C109.008 16.6637 109.154 17.2283 109.448 17.727C109.741 18.2257 110.137 18.6217 110.636 18.915C111.149 19.2083 111.721 19.355 112.352 19.355Z" fill="#1B1464"/>
<path d="M126.055 21.995C124.911 21.995 123.869 21.731 122.931 21.203C122.007 20.675 121.273 19.9637 120.731 19.069C120.188 18.1743 119.917 17.1697 119.917 16.055C119.917 14.9403 120.173 13.9357 120.687 13.041C121.215 12.1463 121.926 11.435 122.821 10.907C123.715 10.379 124.713 10.115 125.813 10.115C126.913 10.115 127.888 10.3863 128.739 10.929C129.589 11.4717 130.257 12.205 130.741 13.129C131.239 14.053 131.489 15.1017 131.489 16.275V17.067H122.997C123.129 17.5217 123.341 17.9323 123.635 18.299C123.943 18.6657 124.317 18.9517 124.757 19.157C125.211 19.3623 125.695 19.465 126.209 19.465C126.722 19.465 127.191 19.3843 127.617 19.223C128.057 19.0617 128.431 18.8343 128.739 18.541L130.719 20.345C130.015 20.917 129.289 21.335 128.541 21.599C127.807 21.863 126.979 21.995 126.055 21.995ZM122.953 14.911H128.519C128.416 14.4563 128.225 14.0603 127.947 13.723C127.683 13.371 127.36 13.0997 126.979 12.909C126.612 12.7037 126.201 12.601 125.747 12.601C125.277 12.601 124.852 12.6963 124.471 12.887C124.089 13.0777 123.767 13.349 123.503 13.701C123.253 14.0383 123.07 14.4417 122.953 14.911Z" fill="#1B1464"/>
<path d="M137.733 21.995C136.677 21.995 135.701 21.863 134.807 21.599C133.912 21.3203 133.135 20.9243 132.475 20.411L133.971 18.409C134.631 18.849 135.261 19.179 135.863 19.399C136.479 19.619 137.087 19.729 137.689 19.729C138.363 19.729 138.899 19.619 139.295 19.399C139.705 19.1643 139.911 18.8637 139.911 18.497C139.911 18.2037 139.793 17.969 139.559 17.793C139.339 17.617 138.979 17.4923 138.481 17.419L136.281 17.089C135.137 16.913 134.271 16.5463 133.685 15.989C133.098 15.417 132.805 14.669 132.805 13.745C132.805 12.997 132.995 12.359 133.377 11.831C133.773 11.2883 134.323 10.8703 135.027 10.577C135.745 10.269 136.596 10.115 137.579 10.115C138.415 10.115 139.229 10.2323 140.021 10.467C140.827 10.7017 141.583 11.061 142.287 11.545L140.835 13.503C140.204 13.107 139.603 12.821 139.031 12.645C138.459 12.469 137.879 12.381 137.293 12.381C136.75 12.381 136.31 12.4837 135.973 12.689C135.65 12.8943 135.489 13.1657 135.489 13.503C135.489 13.811 135.606 14.053 135.841 14.229C136.075 14.405 136.479 14.5297 137.051 14.603L139.229 14.933C140.373 15.0943 141.245 15.461 141.847 16.033C142.448 16.5903 142.749 17.3163 142.749 18.211C142.749 18.9443 142.529 19.597 142.089 20.169C141.649 20.7263 141.055 21.1737 140.307 21.511C139.559 21.8337 138.701 21.995 137.733 21.995Z" fill="#1B1464"/>
<path d="M144.249 21.775V10.313H147.263V21.775H144.249ZM145.745 8.949C145.276 8.949 144.873 8.78033 144.535 8.443C144.198 8.10567 144.029 7.70233 144.029 7.233C144.029 6.749 144.198 6.34567 144.535 6.023C144.873 5.68566 145.276 5.517 145.745 5.517C146.229 5.517 146.633 5.68566 146.955 6.023C147.293 6.34567 147.461 6.749 147.461 7.233C147.461 7.70233 147.293 8.10567 146.955 8.443C146.633 8.78033 146.229 8.949 145.745 8.949Z" fill="#1B1464"/>
<path d="M155.384 26.483C154.504 26.483 153.654 26.3877 152.832 26.197C152.011 26.021 151.27 25.7643 150.61 25.427L151.666 23.095C152.297 23.403 152.913 23.6303 153.514 23.777C154.116 23.9237 154.717 23.997 155.318 23.997C156.213 23.997 156.888 23.8063 157.342 23.425C157.812 23.0437 158.046 22.4717 158.046 21.709V20.807C157.108 21.4963 156.059 21.841 154.9 21.841C153.815 21.841 152.832 21.5843 151.952 21.071C151.087 20.543 150.39 19.8317 149.862 18.937C149.349 18.0423 149.092 17.0523 149.092 15.967C149.092 14.8817 149.349 13.899 149.862 13.019C150.39 12.139 151.102 11.4423 151.996 10.929C152.891 10.401 153.888 10.137 154.988 10.137C155.546 10.137 156.088 10.2177 156.616 10.379C157.144 10.5403 157.636 10.7677 158.09 11.061V10.313H161.06V21.753C161.06 23.2637 160.569 24.4297 159.586 25.251C158.618 26.0723 157.218 26.483 155.384 26.483ZM155.362 19.289C155.92 19.289 156.426 19.201 156.88 19.025C157.335 18.8343 157.724 18.5703 158.046 18.233V13.745C157.724 13.4223 157.328 13.173 156.858 12.997C156.404 12.8063 155.912 12.711 155.384 12.711C154.754 12.711 154.189 12.8577 153.69 13.151C153.192 13.4297 152.796 13.8183 152.502 14.317C152.209 14.801 152.062 15.351 152.062 15.967C152.062 16.5977 152.202 17.1623 152.48 17.661C152.774 18.1597 153.17 18.5557 153.668 18.849C154.182 19.1423 154.746 19.289 155.362 19.289Z" fill="#1B1464"/>
<path d="M163.413 21.775V10.313H166.427V11.259C167.293 10.4817 168.363 10.093 169.639 10.093C170.534 10.093 171.319 10.291 171.993 10.687C172.683 11.0683 173.218 11.6037 173.599 12.293C173.981 12.9677 174.171 13.7597 174.171 14.669V21.775H171.157V15.109C171.157 14.361 170.945 13.7743 170.519 13.349C170.094 12.909 169.515 12.689 168.781 12.689C168.268 12.689 167.813 12.7917 167.417 12.997C167.021 13.1877 166.691 13.4663 166.427 13.833V21.775H163.413Z" fill="#1B1464"/>
<defs>
<radialGradient id="paint0_angular_305_19629" cx="0" cy="0" r="1" gradientUnits="userSpaceOnUse" gradientTransform="translate(29.7703 15.7188) rotate(-89.5464) scale(26.6648 25.9763)">
<stop offset="0.715727" stop-color="#4F46E5"/>
<stop offset="0.872048" stop-color="#4F46E5" stop-opacity="0"/>
</radialGradient>
<radialGradient id="paint1_angular_305_19629" cx="0" cy="0" r="1" gradientUnits="userSpaceOnUse" gradientTransform="translate(29.7703 15.7188) rotate(45.2418) scale(26.0852 25.9201)">
<stop stop-color="#4F46E5" stop-opacity="0"/>
<stop offset="0.844576" stop-color="#4F46E5"/>
</radialGradient>
<radialGradient id="paint2_angular_305_19629" cx="0" cy="0" r="1" gradientUnits="userSpaceOnUse" gradientTransform="translate(30.4332 15.5265) rotate(-106.509) scale(0.357437 0.502719)">
<stop offset="0.715727" stop-color="#4F46E5"/>
<stop offset="0.872048" stop-color="#4F46E5" stop-opacity="0"/>
</radialGradient>
<clipPath id="clip0_305_19629">
<rect width="60" height="32" fill="white"/>
</clipPath>
</defs>
</svg>
