<svg width="219" height="31" viewBox="0 0 219 31" fill="none" xmlns="http://www.w3.org/2000/svg">
<g clip-path="url(#clip0_559_91445)">
<g clip-path="url(#clip1_559_91445)">
<path fill-rule="evenodd" clip-rule="evenodd" d="M0 0V-1H219V0C217.674 0 216.402 0.526784 215.464 1.46447C214.527 2.40215 214 3.67392 214 5V8C214 20.15 204.15 30 192 30H27C14.85 30 5 20.15 5 8V5C5 4.34339 4.87067 3.69321 4.6194 3.08658C4.36812 2.47995 3.99983 1.92876 3.53553 1.46447C3.07124 1.00017 2.52005 0.631876 1.91342 0.380602C1.30679 0.129329 0.656609 0 0 0Z" fill="currentColor"/>
</g>
</g>
<defs>
<clipPath id="clip0_559_91445">
<rect width="219" height="31" fill="white"/>
</clipPath>
<clipPath id="clip1_559_91445">
<rect width="219" height="31" fill="white"/>
</clipPath>
</defs>
</svg>
