<svg width="16" height="16" viewBox="0 0 16 16" fill="none" xmlns="http://www.w3.org/2000/svg">
<path d="M14 11.0813V4.91875C13.9995 4.82974 13.9756 4.74242 13.9306 4.66561C13.8856 4.5888 13.8212 4.52521 13.7437 4.48125L8.24375 1.3875C8.16964 1.34471 8.08557 1.32219 8 1.32219C7.91443 1.32219 7.83036 1.34471 7.75625 1.3875L2.25625 4.48125C2.17884 4.52521 2.1144 4.5888 2.06941 4.66561C2.02442 4.74242 2.00048 4.82974 2 4.91875V11.0813C2.00048 11.1703 2.02442 11.2576 2.06941 11.3344C2.1144 11.4112 2.17884 11.4748 2.25625 11.5188L7.75625 14.6125C7.83036 14.6553 7.91443 14.6778 8 14.6778C8.08557 14.6778 8.16964 14.6553 8.24375 14.6125L13.7437 11.5188C13.8212 11.4748 13.8856 11.4112 13.9306 11.3344C13.9756 11.2576 13.9995 11.1703 14 11.0813Z" stroke="#000000" stroke-linecap="round" stroke-linejoin="round"/>
<path d="M13.9313 4.66251L8.05635 8.00001L2.06885 4.66251" stroke="#000000" stroke-linecap="round" stroke-linejoin="round"/>
<path d="M8.05625 8L8 14.675" stroke="#000000" stroke-linecap="round" stroke-linejoin="round"/>
</svg>
