<svg width="16" height="16" viewBox="0 0 16 16" fill="none" xmlns="http://www.w3.org/2000/svg">
<g clip-path="url(#clip0_559_46656)">
<path d="M2 13V4C2 3.86739 2.05268 3.74021 2.14645 3.64645C2.24021 3.55268 2.36739 3.5 2.5 3.5H5.83125C5.93936 3.50044 6.04449 3.53549 6.13125 3.6L7.86875 4.9C7.95551 4.96451 8.06064 4.99956 8.16875 5H12.5C12.6326 5 12.7598 5.05268 12.8536 5.14645C12.9473 5.24021 13 5.36739 13 5.5V7" stroke="#000000" stroke-linecap="round" stroke-linejoin="round"/>
<path d="M2 13L3.875 8.3125C3.91157 8.21983 3.97531 8.1404 4.05785 8.08462C4.1404 8.02885 4.23788 7.99935 4.3375 8H7.35C7.44743 7.99896 7.54265 7.97083 7.625 7.91875L8.875 7.08125C8.95735 7.02917 9.05257 7.00104 9.15 7H14.3062C14.3853 6.99999 14.4633 7.01874 14.5337 7.05469C14.6041 7.09065 14.665 7.14279 14.7113 7.20683C14.7577 7.27088 14.7882 7.34501 14.8003 7.42313C14.8125 7.50125 14.806 7.58115 14.7812 7.65625L13 13H2Z" stroke="#000000" stroke-linecap="round" stroke-linejoin="round"/>
</g>
<defs>
<clipPath id="clip0_559_46656">
<rect width="16" height="16" fill="white"/>
</clipPath>
</defs>
</svg>
