<svg width="16" height="16" viewBox="0 0 16 16" fill="none" xmlns="http://www.w3.org/2000/svg">
<g clip-path="url(#clip0_3_2736)">
<path d="M8 14C11.3137 14 14 11.3137 14 8C14 4.68629 11.3137 2 8 2C4.68629 2 2 4.68629 2 8C2 11.3137 4.68629 14 8 14Z" stroke="#000000" stroke-linecap="round" stroke-linejoin="round"/>
<path d="M13.3877 10.65L9.99392 8.56249C9.93551 8.52493 9.86919 8.5014 9.80017 8.49374L8.36892 8.29999C8.26214 8.28466 8.15329 8.30518 8.05941 8.35834C7.96554 8.41149 7.89195 8.49428 7.85017 8.59374L6.99392 10.5125C6.95367 10.6017 6.9405 10.7008 6.95606 10.7975C6.97161 10.8942 7.0152 10.9841 7.08142 11.0562L8.25642 12.325C8.30954 12.3834 8.34845 12.4532 8.37013 12.5291C8.39182 12.605 8.39568 12.6849 8.38142 12.7625L8.13767 14" stroke="#000000" stroke-linecap="round" stroke-linejoin="round"/>
<path d="M4.06236 3.47501L3.49986 4.80001C3.45087 4.91764 3.44863 5.04953 3.49361 5.16876L4.21236 7.08126C4.24045 7.16097 4.28854 7.23214 4.35201 7.28795C4.41548 7.34376 4.49221 7.38234 4.57486 7.40001L5.91236 7.68751C5.9866 7.70252 6.05632 7.73463 6.11598 7.78128C6.17565 7.82792 6.22363 7.88784 6.25611 7.95626L6.49361 8.45001C6.53581 8.53349 6.60005 8.60383 6.67938 8.65341C6.7587 8.70299 6.85008 8.72991 6.94361 8.73126H7.78736" stroke="#000000" stroke-linecap="round" stroke-linejoin="round"/>
<path d="M9.53135 2.19376L10.1126 3.24376C10.1663 3.34247 10.1856 3.45623 10.1675 3.56713C10.1494 3.67802 10.0949 3.77974 10.0126 3.85626L8.33135 5.37501C8.3032 5.40188 8.27169 5.42499 8.2376 5.44376L7.46885 5.86876C7.39557 5.90764 7.31428 5.92903 7.23135 5.93126H5.89385C5.79532 5.93176 5.69907 5.961 5.61692 6.0154C5.53477 6.0698 5.47027 6.14699 5.43135 6.23751L4.9126 7.46876" stroke="#000000" stroke-linecap="round" stroke-linejoin="round"/>
</g>
<defs>
<clipPath id="clip0_3_2736">
<rect width="16" height="16" fill="white"/>
</clipPath>
</defs>
</svg>
