<svg width="16" height="16" viewBox="0 0 16 16" fill="none" xmlns="http://www.w3.org/2000/svg">
<g clip-path="url(#clip0_42_8500)">
<path d="M8.66873 10.9687L7.46873 14.225C7.43321 14.3207 7.36926 14.4032 7.28547 14.4615C7.20167 14.5198 7.10205 14.551 6.99998 14.551C6.89791 14.551 6.79829 14.5198 6.7145 14.4615C6.6307 14.4032 6.56675 14.3207 6.53123 14.225L5.33123 10.9687C5.30591 10.9 5.26597 10.8376 5.21417 10.7858C5.16238 10.734 5.09996 10.6941 5.03123 10.6687L1.77498 9.46875C1.67929 9.43323 1.59677 9.36928 1.53849 9.28548C1.48021 9.20169 1.44897 9.10206 1.44897 9C1.44897 8.89793 1.48021 8.79831 1.53849 8.71451C1.59677 8.63072 1.67929 8.56677 1.77498 8.53125L5.03123 7.33125C5.09996 7.30592 5.16238 7.26598 5.21417 7.21419C5.26597 7.1624 5.30591 7.09998 5.33123 7.03125L6.53123 3.775C6.56675 3.67931 6.6307 3.59678 6.7145 3.5385C6.79829 3.48023 6.89791 3.44899 6.99998 3.44899C7.10205 3.44899 7.20167 3.48023 7.28547 3.5385C7.36926 3.59678 7.43321 3.67931 7.46873 3.775L8.66873 7.03125C8.69406 7.09998 8.734 7.1624 8.78579 7.21419C8.83758 7.26598 8.9 7.30592 8.96873 7.33125L12.225 8.53125C12.3207 8.56677 12.4032 8.63072 12.4615 8.71451C12.5198 8.79831 12.551 8.89793 12.551 9C12.551 9.10206 12.5198 9.20169 12.4615 9.28548C12.4032 9.36928 12.3207 9.43323 12.225 9.46875L8.96873 10.6687C8.9 10.6941 8.83758 10.734 8.78579 10.7858C8.734 10.8376 8.69406 10.9 8.66873 10.9687Z" stroke="#000000" stroke-linecap="round" stroke-linejoin="round"/>
<path d="M11 1V4" stroke="#000000" stroke-linecap="round" stroke-linejoin="round"/>
<path d="M12.5 2.5H9.5" stroke="#000000" stroke-linecap="round" stroke-linejoin="round"/>
<path d="M14 4.5V6.5" stroke="#000000" stroke-linecap="round" stroke-linejoin="round"/>
<path d="M15 5.5H13" stroke="#000000" stroke-linecap="round" stroke-linejoin="round"/>
</g>
<defs>
<clipPath id="clip0_42_8500">
<rect width="16" height="16" fill="white"/>
</clipPath>
</defs>
</svg>
